<svg id="visual" viewBox="0 0 1920 1080" width="1920" height="1080" xmlns="http://www.w3.org/2000/svg" xmlns:xlink="http://www.w3.org/1999/xlink" version="1.1"><rect x="0" y="0" width="1920" height="1080" fill="#001220"></rect><path d="M0 765L45.7 764.2C91.3 763.3 182.7 761.7 274.2 760.2C365.7 758.7 457.3 757.3 548.8 745.8C640.3 734.3 731.7 712.7 823 701.5C914.3 690.3 1005.7 689.7 1097 702.7C1188.3 715.7 1279.7 742.3 1371.2 748C1462.7 753.7 1554.3 738.3 1645.8 716.8C1737.3 695.3 1828.7 667.7 1874.3 653.8L1920 640L1920 1081L1874.3 1081C1828.7 1081 1737.3 1081 1645.8 1081C1554.3 1081 1462.7 1081 1371.2 1081C1279.7 1081 1188.3 1081 1097 1081C1005.7 1081 914.3 1081 823 1081C731.7 1081 640.3 1081 548.8 1081C457.3 1081 365.7 1081 274.2 1081C182.7 1081 91.3 1081 45.7 1081L0 1081Z" fill="#fa7268"></path><path d="M0 739L45.7 743.7C91.3 748.3 182.7 757.7 274.2 753.2C365.7 748.7 457.3 730.3 548.8 742.7C640.3 755 731.7 798 823 818C914.3 838 1005.7 835 1097 836.2C1188.3 837.3 1279.7 842.7 1371.2 831C1462.7 819.3 1554.3 790.7 1645.8 778.8C1737.3 767 1828.7 772 1874.3 774.5L1920 777L1920 1081L1874.3 1081C1828.7 1081 1737.3 1081 1645.8 1081C1554.3 1081 1462.7 1081 1371.2 1081C1279.7 1081 1188.3 1081 1097 1081C1005.7 1081 914.3 1081 823 1081C731.7 1081 640.3 1081 548.8 1081C457.3 1081 365.7 1081 274.2 1081C182.7 1081 91.3 1081 45.7 1081L0 1081Z" fill="#ef5f67"></path><path d="M0 880L45.7 885.5C91.3 891 182.7 902 274.2 895.2C365.7 888.3 457.3 863.7 548.8 851.8C640.3 840 731.7 841 823 838C914.3 835 1005.7 828 1097 830.7C1188.3 833.3 1279.7 845.7 1371.2 844.3C1462.7 843 1554.3 828 1645.8 831C1737.3 834 1828.7 855 1874.3 865.5L1920 876L1920 1081L1874.3 1081C1828.7 1081 1737.3 1081 1645.8 1081C1554.3 1081 1462.7 1081 1371.2 1081C1279.7 1081 1188.3 1081 1097 1081C1005.7 1081 914.3 1081 823 1081C731.7 1081 640.3 1081 548.8 1081C457.3 1081 365.7 1081 274.2 1081C182.7 1081 91.3 1081 45.7 1081L0 1081Z" fill="#e34c67"></path><path d="M0 924L45.7 926C91.3 928 182.7 932 274.2 930C365.7 928 457.3 920 548.8 912C640.3 904 731.7 896 823 893.8C914.3 891.7 1005.7 895.3 1097 894.3C1188.3 893.3 1279.7 887.7 1371.2 884.2C1462.7 880.7 1554.3 879.3 1645.8 885.2C1737.3 891 1828.7 904 1874.3 910.5L1920 917L1920 1081L1874.3 1081C1828.7 1081 1737.3 1081 1645.8 1081C1554.3 1081 1462.7 1081 1371.2 1081C1279.7 1081 1188.3 1081 1097 1081C1005.7 1081 914.3 1081 823 1081C731.7 1081 640.3 1081 548.8 1081C457.3 1081 365.7 1081 274.2 1081C182.7 1081 91.3 1081 45.7 1081L0 1081Z" fill="#d53867"></path><path d="M0 1025L45.7 1016.2C91.3 1007.3 182.7 989.7 274.2 977C365.7 964.3 457.3 956.7 548.8 955C640.3 953.3 731.7 957.7 823 964.7C914.3 971.7 1005.7 981.3 1097 988.5C1188.3 995.7 1279.7 1000.3 1371.2 997.3C1462.7 994.3 1554.3 983.7 1645.8 986.3C1737.3 989 1828.7 1005 1874.3 1013L1920 1021L1920 1081L1874.3 1081C1828.7 1081 1737.3 1081 1645.8 1081C1554.3 1081 1462.7 1081 1371.2 1081C1279.7 1081 1188.3 1081 1097 1081C1005.7 1081 914.3 1081 823 1081C731.7 1081 640.3 1081 548.8 1081C457.3 1081 365.7 1081 274.2 1081C182.7 1081 91.3 1081 45.7 1081L0 1081Z" fill="#c62368"></path></svg>